<svg xmlns="http://www.w3.org/2000/svg" width="81" height="83" viewBox="0 0 81 83" fill="none"><path d="M19.0105 28.343H25.9641C26.7743 28.343 27.5451 27.9953 28.0813 27.3901L30.9021 24.2036C31.322 23.728 31.9271 23.4574 32.5602 23.4574C33.1932 23.4574 33.7984 23.7296 34.2182 24.2036L36.6372 26.9375C37.4293 27.8313 38.5659 28.3446 39.7598 28.3446H77.8225C78.9066 31.4344 79.6134 34.698 79.8955 38.0829H43.9631C43.3317 38.0829 42.7265 37.8254 42.2903 37.3695L38.9447 33.878C38.5265 33.4417 37.9492 33.1957 37.3457 33.1957H37.208C36.5733 33.1957 35.9697 33.468 35.5499 33.9436L32.7307 37.1301C32.1945 37.7369 31.4237 38.0829 30.6135 38.0829H1.28375C1.56583 34.6963 2.27267 31.4327 3.35671 28.3446H19.0121L19.0105 28.343Z" fill="#06F7F7"></path><path d="M58.1526 58.5612C57.5212 58.5612 56.916 58.3037 56.4798 57.8478L53.1342 54.3562C52.716 53.92 52.1387 53.674 51.5352 53.674H51.3974C50.7627 53.674 50.1592 53.9462 49.7394 54.4202L46.9202 57.6067C46.3839 58.2135 45.6131 58.5596 44.803 58.5596H5.05593C3.56681 55.4829 2.47621 52.1816 1.82677 48.7228H39.9781C40.7883 48.7228 41.5591 48.3752 42.0953 47.77L44.9145 44.5835C45.3343 44.1079 45.9395 43.8373 46.5725 43.8373C47.2056 43.8373 47.8107 44.1095 48.2306 44.5835L50.6496 47.3174C51.4417 48.2112 52.5782 48.7245 53.7738 48.7245H79.3545C78.7051 52.1832 77.6128 55.4846 76.1253 58.5612H58.1526V58.5612Z" fill="#06F7F7"></path><path d="M29.9546 17.7008C29.3232 17.7008 28.7181 17.4434 28.2818 16.9874L24.9362 13.4959C24.518 13.0596 23.9407 12.8136 23.3372 12.8136H23.1995C22.5648 12.8136 21.9613 13.0859 21.5414 13.5615L18.7223 16.748C18.186 17.3548 17.4152 17.7008 16.605 17.7008H9.04627C16.2442 8.13309 27.6931 1.94373 40.59 1.94373C53.487 1.94373 64.9358 8.13309 72.1338 17.7008H29.9546Z" fill="#06F7F7"></path><path d="M45.1364 68.3098H55.4733C56.2834 68.3098 57.0542 67.9621 57.5905 67.3569L60.4097 64.1704C60.8295 63.6948 61.4347 63.4242 62.0677 63.4242C62.7008 63.4242 63.3059 63.6964 63.7258 64.1704L66.1448 66.9043C66.9369 67.7981 68.0734 68.3114 69.269 68.3114H69.4297C62.2284 76.0276 51.9735 80.8574 40.587 80.8574C29.2005 80.8574 18.9472 76.0276 11.7443 68.3114H45.1364V68.3098Z" fill="#06F7F7"></path></svg>