<svg xmlns="http://www.w3.org/2000/svg" width="64" height="67" viewBox="0 0 64 67" fill="none"><path d="M32.2169 42.9185L40.8931 56.535L48.9077 51.8914L37.5144 33.9319L32.2169 42.9185Z" fill="#57A5FF"></path><path d="M56.2058 46.4283L56.2 42.706L43.7487 23.3138L39.1285 31.1507L51.1484 50.5898L55.4934 48.0719C55.9189 47.7264 56.1785 47.2169 56.2039 46.6704V46.4283H56.2058Z" fill="#57A5FF"></path><path d="M4.03282 49.9368L10.1696 53.4737L30.5925 20.7226L27.1259 20.6308C24.1727 20.5898 20.991 21.3569 19.531 23.7402L7.9347 41.7154L4.03282 47.7097V49.9368Z" fill="#57A5FF"></path><path d="M42.379 20.724L33.244 20.7572L12.5791 54.861L19.8012 59.0205L21.7668 55.6886L42.379 20.724Z" fill="#57A5FF"></path><path d="M60.0547 20.6761C59.9786 18.7652 58.944 17.0163 57.324 15.9993L34.6154 2.93908C33.0129 2.13294 31.0102 2.13099 29.4057 2.93908C29.2164 3.03472 7.3218 15.7319 7.3218 15.7319C7.01925 15.8764 6.72646 16.0501 6.45319 16.2472C5.00487 17.2837 4.12456 18.894 4.03282 20.6644V47.7101L7.9347 41.7158L7.89956 20.8479C7.90347 20.7718 7.91323 20.6976 7.92689 20.6234C8.01472 20.1315 8.28994 19.6943 8.7018 19.3976C8.80525 19.3234 31.0727 6.43495 31.1449 6.39787C31.668 6.13436 32.3336 6.13241 32.8567 6.39006L55.2725 19.2844C55.8034 19.6221 56.1352 20.194 56.1645 20.8206V46.6717C56.1372 47.2202 55.9205 47.7277 55.495 48.0732L51.1501 50.5911L48.9073 51.8911L40.8927 56.5367L32.765 61.2466C32.3278 61.4047 31.8164 61.3969 31.3811 61.2193L21.764 55.6876L19.8004 59.0195L28.4415 63.9949C28.7265 64.1569 28.9822 64.3014 29.191 64.4185C29.515 64.6 29.7356 64.721 29.8137 64.7581C30.4285 65.0568 31.3108 65.2305 32.1072 65.2305C32.8372 65.2305 33.5497 65.0958 34.2231 64.8323L57.8315 51.1611C59.1861 50.111 59.9844 48.528 60.0547 46.8122V20.6761Z" fill="#57A5FF"></path></svg>