<svg xmlns="http://www.w3.org/2000/svg" width="64" height="64" viewBox="0 0 64 64" fill="none"><path d="M19.5917 26.9253L31.8434 14.6736L44.1009 26.9306L51.2295 19.8019L31.8434 0.41626L12.4635 19.7961L19.5919 26.9248L19.5917 26.9253ZM0.300659 31.959L7.42957 24.8291L14.558 31.9575L7.42906 39.0864L0.300659 31.959ZM19.5917 36.9935L31.8434 49.2444L44.1006 36.9877L51.2331 44.1125L51.2295 44.1163L31.8434 63.5017L12.4635 44.1219L12.4534 44.1118L19.5924 36.9927L19.5917 36.9935ZM49.1288 31.962L56.2577 24.8331L63.3861 31.9615L56.2575 39.0904L49.1288 31.962Z" fill="#F0C800"></path><path d="M39.0731 31.9556H39.0761L31.843 24.7219L26.4966 30.0668L25.8824 30.6812L24.6157 31.9482L24.6056 31.9581L24.6157 31.9684L31.843 39.1968L39.0766 31.9631L39.0802 31.9591L39.0736 31.9556" fill="#F0C800"></path></svg>