<svg xmlns="http://www.w3.org/2000/svg" width="64" height="64" viewBox="0 0 64 64" fill="none"><path d="M32.1394 2.45612L32.1175 2.46896V2.45612L5.88065 17.3097V47.0341L17.9896 53.885L32.1175 61.8878V61.8749L32.1394 61.8878L58.3806 47.0341V17.3183L32.1394 2.45612ZM26.9567 50.1513L13.6634 42.6281V21.7115L32.1394 11.2638V11.2724L50.6066 21.7243V42.6324L32.1394 53.0843L26.9567 50.1556V50.1513Z" fill="#005AC2"></path><path d="M32.1305 24.0743L39.284 28.1292L44.3881 25.239L32.1305 18.2939L19.8642 25.239V39.1164L32.1305 46.0486L44.3881 39.1164L39.284 36.2176L32.1305 40.2725L24.977 36.2176V28.1292L32.1305 24.0743Z" fill="#005AC2"></path></svg>