<svg xmlns="http://www.w3.org/2000/svg" width="66" height="65" viewBox="0 0 66 65" fill="none"><g clip-path="url(#clip0_5607_3630)"><path d="M59.7939 0.450928C60.1023 0.548078 60.4033 0.6598 60.7166 0.73752C62.8558 1.26456 64.4595 2.49594 65.1874 4.52637C66.0115 6.82397 66.0584 9.25029 65.1405 11.5163C64.7112 12.5752 63.823 13.5832 62.8903 14.3021C55.0715 20.3254 47.1958 26.2758 39.3375 32.2506C39.2388 32.3234 39.1006 32.3793 39.0537 32.4764C38.8415 32.9209 38.654 33.3775 38.4566 33.8292C38.923 33.7442 39.4756 33.788 39.8359 33.5475C40.8869 32.848 41.8665 32.0417 42.8657 31.2669C47.0206 28.0415 51.1534 24.7846 55.3355 21.5908C59.2535 18.601 64.6668 20.5683 65.5797 25.2728C66.2952 28.9523 63.5121 32.3501 59.6064 32.6319C55.3503 32.9403 51.0991 33.2973 46.8455 33.6374C46.4359 33.6689 45.9992 33.6689 45.634 33.822C45.3182 33.9531 45.0838 34.2786 44.8124 34.519C45.1332 34.7109 45.4317 34.9926 45.7796 35.0703C46.1645 35.1578 46.5963 35.0655 47.0058 35.0412C50.6525 34.8226 54.2992 34.5797 57.9483 34.3879C62.9323 34.1255 65.6734 36.6976 65.6685 41.5794C65.6611 47.2675 65.6685 52.9581 65.6438 58.6462C65.634 61.1333 64.3386 63.0641 62.2044 63.8996C59.9839 64.7667 57.6745 64.3416 56.0904 62.6804C55.597 62.163 55.2022 61.5194 54.8913 60.8734C53.3221 57.5921 51.8097 54.2817 50.2429 51.0005C49.5842 49.6185 48.2296 48.9288 46.8356 49.1522C45.407 49.3805 44.1931 50.4978 44.1906 51.9234C44.1906 52.7395 44.5509 53.6406 44.995 54.3522C45.4786 55.127 46.278 55.705 46.8874 56.4118C48.2395 57.9783 48.5183 59.744 47.6375 61.5996C46.7838 63.3993 45.2837 64.2639 43.2432 64.4072C37.6523 64.8007 35.2862 62.5031 34.8174 57.3857C34.2548 51.2458 33.2852 45.1424 32.4759 39.0243C32.4266 38.6552 32.2514 38.303 32.1354 37.9411C31.9849 37.963 31.8319 37.9848 31.6814 38.0091C31.7086 38.6115 31.6938 39.2186 31.7703 39.8161C32.508 45.6184 33.2728 51.4158 34.0032 57.2157C34.4818 61.0264 31.5359 64.3635 27.6153 64.3708C20.7957 64.3829 13.9785 64.3513 7.15892 64.2882C3.81079 64.2566 1.13623 61.908 0.766139 58.5588C0.573689 56.8052 0.603297 55.0007 0.785877 53.2447C1.05481 50.6435 2.66103 48.9774 5.08145 47.9549C10.1715 45.803 15.2344 43.5928 20.3072 41.4069C22.2983 40.5496 24.2919 39.6947 26.2879 38.8398C27.0232 38.524 27.8793 38.201 27.3883 37.2028C26.9467 36.3066 26.1744 36.6612 25.4712 36.9745C20.3935 39.2502 15.3084 41.5138 10.2282 43.7871C6.98867 45.2371 3.50484 44.3652 1.72839 41.6498C-0.0974167 38.8568 0.452792 34.8712 2.98918 32.7242C4.22036 31.6822 5.681 31.1989 7.30696 31.2621C14.3215 31.5341 21.3385 31.8158 28.353 32.0878C28.9625 32.1121 29.5744 32.0903 30.1862 32.0903C30.1961 31.9324 30.206 31.7721 30.2134 31.6142C29.9 31.5414 29.5892 31.4272 29.2709 31.4053C22.2292 30.9002 15.1875 30.4047 8.14584 29.9068C7.24527 29.8437 6.34718 29.7489 5.44661 29.6955C3.3494 29.5716 1.56061 28.2917 0.968458 26.4653C0.304753 24.4203 0.914177 22.453 2.60921 21.1706C4.29932 19.8906 6.42613 19.7279 8.2396 20.9204C10.9364 22.6886 13.5443 24.5903 16.2386 26.3608C16.8085 26.7349 17.603 26.9826 18.279 26.9583C19.3671 26.9194 20.0728 26.1738 20.2998 25.1295C20.5514 23.9661 20.0654 23.0553 19.0094 22.504C16.5445 21.2167 14.0674 19.9562 11.5828 18.7078C9.17224 17.4935 6.73701 16.3277 4.33139 15.1011C1.98005 13.9013 0.766139 11.9632 0.682251 9.35958C0.652643 8.39294 0.66498 7.42387 0.674849 6.4548C0.704456 3.67631 2.4143 1.52686 5.15547 0.783667C5.46388 0.701089 5.75749 0.56265 6.05603 0.450928H7.28968C9.1599 1.04111 10.702 1.98833 11.9159 3.61316C17.6918 11.3512 23.5566 19.0284 29.3893 26.7276C29.5596 26.9535 29.7027 27.2352 29.9346 27.3712C30.1394 27.4926 30.5193 27.5558 30.6871 27.4441C30.8351 27.3469 30.8845 26.9462 30.8129 26.7324C30.7167 26.4386 30.4651 26.1908 30.2775 25.9261C26.6901 20.8621 23.1051 15.7982 19.5176 10.7343C18.3531 9.08999 17.9238 7.3 18.4394 5.34C19.1327 2.69995 21.0029 1.2257 23.5591 0.450928C25.449 0.450928 27.3365 0.450928 29.2265 0.450928C29.3276 0.516504 29.4189 0.606368 29.5275 0.64037C33.3074 1.85475 34.9975 4.45351 34.3979 8.31522C33.8403 11.9001 33.1816 15.4679 32.582 19.0454C32.5203 19.4098 32.5746 19.7935 32.5746 20.1675C32.7325 20.1918 32.8904 20.2185 33.0508 20.2428C33.2482 19.7109 33.4801 19.1887 33.6355 18.6447C34.8914 14.2219 36.1226 9.79433 37.3809 5.374C38.0816 2.91368 39.6903 1.34957 42.2365 0.742378C42.5104 0.676802 42.767 0.550506 43.031 0.450928C48.6195 0.450928 54.2054 0.450928 59.7939 0.450928Z" fill="#6818AA"></path></g><defs><clipPath id="clip0_5607_3630"><rect width="65.1836" height="64" fill="white" transform="translate(0.632812 0.450928)"></rect></clipPath></defs></svg>