<svg xmlns="http://www.w3.org/2000/svg" width="64" height="64" viewBox="0 0 64 64" fill="none"><path d="M11.1083 45.2797C11.489 44.8993 12.0124 44.6774 12.5675 44.6774H62.9085C63.8284 44.6774 64.2883 45.787 63.638 46.4369L53.6936 56.3758C53.3129 56.7562 52.7895 56.9781 52.2344 56.9781H1.89344C0.973534 56.9781 0.513582 55.8685 1.16386 55.2186L11.1083 45.2797Z" fill="#33FFCC"></path><path d="M11.1082 8.1712C11.5047 7.79077 12.0281 7.56885 12.5674 7.56885H62.9083C63.8282 7.56885 64.2882 8.67845 63.6379 9.32836L53.6934 19.2672C53.3128 19.6477 52.7894 19.8696 52.2343 19.8696H1.89331C0.973409 19.8696 0.513457 18.76 1.16373 18.1101L11.1082 8.1712Z" fill="#33FFCC"></path><path d="M53.6936 26.6069C53.3129 26.2264 52.7895 26.0045 52.2344 26.0045H1.89344C0.973534 26.0045 0.513582 27.1141 1.16386 27.764L11.1083 37.7029C11.489 38.0834 12.0124 38.3053 12.5675 38.3053H62.9085C63.8284 38.3053 64.2883 37.1957 63.638 36.5458L53.6936 26.6069Z" fill="#33FFCC"></path></svg>