<svg xmlns="http://www.w3.org/2000/svg" width="97" height="97" viewBox="0 0 97 97" fill="none"><rect width="97.8281" height="97.8281" transform="translate(0.0976562 0.0280762)" fill="#003470"></rect><path d="M20.9179 47.0959L18.2876 47.0959L18.2876 45.6463L25.3016 45.6463L25.3016 47.0959L22.6714 47.0959L22.6714 53.8293L20.9179 53.8293L20.9179 47.0959ZM28.22 45.6463L33.9481 45.6463L33.9481 47.0959L29.9852 47.0959L29.9852 48.9195L33.5974 48.9195L33.5974 50.3223L29.9852 50.3223L29.9852 52.3798L33.9481 52.3798L33.9481 53.8293L28.22 53.8293L28.22 45.6463ZM40.1452 53.9696C39.0619 53.9696 38.2436 53.7475 37.6903 53.3033C37.137 52.8591 36.8447 52.2746 36.8136 51.5498L38.5671 51.5498C38.5982 51.7057 38.645 51.842 38.7073 51.9589C38.7697 52.0758 38.8632 52.1733 38.9879 52.2512C39.1126 52.3291 39.2685 52.3915 39.4555 52.4382C39.6425 52.4772 39.8724 52.4967 40.1452 52.4967C40.7063 52.4967 41.1077 52.4226 41.3493 52.2746C41.5987 52.1187 41.7234 51.9005 41.7234 51.6199C41.7234 51.277 41.5597 51.0198 41.2324 50.8484C40.9128 50.6691 40.3985 50.5094 39.6893 50.3691C39.2685 50.2912 38.8944 50.1899 38.5671 50.0652C38.2397 49.9327 37.9631 49.769 37.7371 49.5742C37.5111 49.3716 37.3396 49.13 37.2227 48.8494C37.1058 48.5688 37.0474 48.2337 37.0474 47.8441C37.0474 47.4934 37.1175 47.1738 37.2578 46.8855C37.4058 46.5971 37.6124 46.3516 37.8773 46.149C38.1501 45.9386 38.4774 45.7788 38.8593 45.6697C39.2412 45.5606 39.6698 45.5061 40.1452 45.5061C40.6596 45.5061 41.1038 45.5606 41.4779 45.6697C41.8519 45.7788 42.1637 45.9347 42.4131 46.1373C42.6702 46.34 42.8651 46.5815 42.9976 46.8621C43.13 47.1427 43.2119 47.4583 43.2431 47.809L41.4896 47.809C41.435 47.5284 41.3103 47.3219 41.1155 47.1894C40.9206 47.0491 40.5972 46.979 40.1452 46.979C39.6854 46.979 39.3464 47.053 39.1282 47.2011C38.91 47.3492 38.8009 47.5479 38.8009 47.7973C38.8009 48.0935 38.9489 48.3311 39.2451 48.5104C39.549 48.6818 40.0244 48.8299 40.6713 48.9546C41.1155 49.0403 41.509 49.1456 41.8519 49.2702C42.2026 49.3949 42.4949 49.5547 42.7287 49.7495C42.9703 49.9444 43.1534 50.186 43.2781 50.4743C43.4106 50.7549 43.4769 51.0939 43.4769 51.4913C43.4769 52.2473 43.1846 52.8513 42.6001 53.3033C42.0234 53.7475 41.2051 53.9696 40.1452 53.9696ZM48.5652 47.0959L45.9349 47.0959L45.9349 45.6463L52.9489 45.6463L52.9489 47.0959L50.3187 47.0959L50.3187 53.8293L48.5652 53.8293L48.5652 47.0959ZM55.8673 45.6463L57.5273 45.6463L61.1278 50.9068L61.1278 45.6463L62.8813 45.6463L62.8813 53.8293L61.2214 53.8293L57.6208 48.5688L57.6208 53.8293L55.8673 53.8293L55.8673 45.6463ZM66.5025 45.6463L72.2306 45.6463L72.2306 47.0959L68.2677 47.0959L68.2677 48.9195L71.8799 48.9195L71.8799 50.3223L68.2677 50.3223L68.2677 52.3798L72.2306 52.3798L72.2306 53.8293L66.5025 53.8293L66.5025 45.6463ZM77.5482 47.0959L74.9179 47.0959L74.9179 45.6463L81.9319 45.6463L81.9319 47.0959L79.3017 47.0959L79.3017 53.8293L77.5482 53.8293L77.5482 47.0959Z" fill="white"></path></svg>