<svg xmlns="http://www.w3.org/2000/svg" width="150" height="62" viewBox="0 0 150 62" fill="none"><path d="M27.0757 15.9531C27.714 15.9531 28.2374 16.1509 28.6339 16.5469C29.0303 16.9429 29.2284 17.4655 29.2284 18.1028V35.5704C29.2284 37.596 28.753 39.4365 27.8023 41.0883C26.8519 42.7395 25.5616 44.0411 23.9338 44.9906C22.305 45.9405 20.4872 46.4155 18.4839 46.4155C16.481 46.4155 14.6509 45.9407 12.9969 44.9913C11.3428 44.0417 10.0454 42.7395 9.10752 41.0873C8.16993 39.4357 7.70117 37.5956 7.70117 35.5704C7.70117 33.5472 8.13692 31.7091 9.00877 30.0586C9.88161 28.4063 11.0821 27.1096 12.6083 26.1716C14.1356 25.233 15.8398 24.7635 17.7168 24.7635C19.2291 24.7635 20.639 25.0764 21.9444 25.7022C23.0871 26.25 24.0804 26.9883 24.923 27.9161V18.1028C24.923 17.4641 25.1285 16.9404 25.5392 16.5445C25.9475 16.1507 26.4634 15.9531 27.0757 15.9531ZM18.4839 28.6033C17.2408 28.6033 16.119 28.9066 15.1145 29.5134C14.1085 30.1212 13.3143 30.9515 12.7299 32.007C12.1455 33.0626 11.8531 34.2493 11.8531 35.5704C11.8531 36.8917 12.1456 38.0851 12.7304 39.1537C13.3148 40.2217 14.1088 41.0581 15.1145 41.6656C16.119 42.2725 17.2408 42.5758 18.4839 42.5758C19.7271 42.5758 20.8489 42.2725 21.8534 41.6656C22.8586 41.0584 23.6458 40.2226 24.2175 39.1553C24.79 38.0863 25.0765 36.8923 25.0765 35.5704C25.0765 34.2487 24.7901 33.0614 24.2179 32.0054C23.6463 30.9506 22.8589 30.1209 21.8534 29.5134C20.8489 28.9066 19.7271 28.6033 18.4839 28.6033ZM51.9581 24.7635C53.9616 24.7635 55.6973 25.2066 57.1615 26.0944C58.6258 26.9823 59.7509 28.2236 60.5344 29.8146C61.3153 31.4004 61.7052 33.2175 61.7052 35.2639C61.7052 35.8017 61.5179 36.2551 61.1463 36.6119C60.7762 36.9673 60.3052 37.1455 59.7443 37.1455H45.4021C45.707 38.7814 46.4816 40.1058 47.7292 41.1263C49.0354 42.1947 50.6341 42.729 52.5334 42.729C53.2783 42.729 54.0562 42.5923 54.8676 42.318C55.6796 42.0435 56.3448 41.7083 56.8612 41.3153C57.2545 41.0067 57.7193 40.852 58.2485 40.852C58.7804 40.852 59.2112 40.9954 59.525 41.2806C60.0277 41.6989 60.2861 42.1864 60.2861 42.7336C60.2861 43.257 60.051 43.6972 59.5981 44.0363C58.7099 44.7407 57.6094 45.313 56.2975 45.7541C54.9867 46.1948 53.7318 46.4155 52.5334 46.4155C50.4045 46.4155 48.4926 45.9544 46.8008 45.0317C45.1073 44.1079 43.7833 42.8248 42.8319 41.1847C41.8808 39.5452 41.4054 37.6854 41.4054 35.6087C41.4054 33.5338 41.8543 31.6693 42.7525 30.0182C43.6519 28.3649 44.905 27.0744 46.5091 26.1497C48.1124 25.2254 49.9298 24.7635 51.9581 24.7635ZM51.9581 28.45C50.137 28.45 48.6683 28.9452 47.5427 29.9334C46.4662 30.8785 45.7674 32.1281 45.4453 33.6888H57.7527C57.5043 32.1236 56.8949 30.8716 55.9249 29.9265C54.9147 28.9423 53.5963 28.45 51.9581 28.45ZM75.6251 18.0645C75.6251 17.4522 75.8236 16.9423 76.2196 16.5469C76.6156 16.1514 77.1261 15.9531 77.7394 15.9531C78.3526 15.9531 78.8632 16.1514 79.2592 16.5469C79.6552 16.9423 79.8537 17.4522 79.8537 18.0645V38.9796C79.8537 39.892 80.0249 40.6371 80.3639 41.2175C80.6889 41.7739 81.0879 42.0395 81.575 42.0395H82.5339C83.1003 42.0395 83.5695 42.2413 83.9271 42.6413C84.2804 43.0365 84.4564 43.5429 84.4564 44.1509C84.4564 44.7763 84.1829 45.294 83.6478 45.6878C83.1257 46.0719 82.4585 46.2623 81.6517 46.2623H81.575C80.4363 46.2623 79.4068 45.9506 78.4917 45.3281C77.5785 44.7068 76.8712 43.8354 76.3709 42.7178C75.8734 41.6064 75.6251 40.3598 75.6251 38.9796V18.0645ZM103.104 38.6348C103.104 39.6128 103.37 40.4244 103.903 41.0775C104.429 41.7224 105.064 42.0395 105.822 42.0395H107.126C107.643 42.0395 108.086 42.2426 108.443 42.6413C108.796 43.0365 108.972 43.5429 108.972 44.1509C108.972 44.77 108.736 45.2844 108.27 45.6794C107.81 46.0687 107.222 46.2623 106.512 46.2623H105.822C104.532 46.2623 103.352 45.9264 102.284 45.2553C101.219 44.5855 100.383 43.672 99.7794 42.5179C99.1762 41.3655 98.8749 40.0702 98.8749 38.6348V29.3694H97.307C96.7227 29.3694 96.2402 29.1993 95.8696 28.8577C95.4967 28.5139 95.3078 28.0785 95.3078 27.5644C95.3078 27.0007 95.4954 26.5395 95.8696 26.1946C96.2402 25.8529 96.7227 25.6828 97.307 25.6828H98.8749V20.3629C98.8749 19.7505 99.0734 19.2407 99.4694 18.8453C99.8654 18.4498 100.376 18.2515 100.989 18.2515C101.602 18.2515 102.113 18.4498 102.509 18.8453C102.905 19.2407 103.104 19.7505 103.104 20.3629V25.6828H106.167C106.752 25.6828 107.234 25.8529 107.605 26.1946C107.979 26.5395 108.166 27.0007 108.166 27.5644C108.166 28.0785 107.978 28.5139 107.605 28.8577C107.234 29.1993 106.752 29.3694 106.167 29.3694H103.104V38.6348ZM131.499 24.7635C133.502 24.7635 135.32 25.2385 136.949 26.1885C138.577 27.1379 139.867 28.4395 140.817 30.0907C141.768 31.7426 142.244 33.583 142.244 35.6087V44.1509C142.244 44.7637 142.038 45.2799 141.63 45.6877C141.221 46.0955 140.705 46.3006 140.091 46.3006C139.477 46.3006 138.96 46.0955 138.552 45.6877C138.143 45.2799 137.938 44.7637 137.938 44.1509V43.263C137.096 44.1908 136.102 44.929 134.96 45.4769C133.654 46.1026 132.244 46.4155 130.732 46.4155C128.855 46.4155 127.151 45.946 125.623 45.0074C124.097 44.0694 122.897 42.7727 122.024 41.1204C121.152 39.47 120.716 37.6318 120.716 35.6087C120.716 33.5834 121.185 31.7434 122.123 30.0917C123.061 28.4395 124.358 27.1374 126.012 26.1878C127.666 25.2383 129.496 24.7635 131.499 24.7635ZM131.499 28.6033C130.256 28.6033 129.134 28.9066 128.13 29.5134C127.124 30.121 126.33 30.9573 125.746 32.0253C125.161 33.094 124.868 34.2874 124.868 35.6087C124.868 36.9297 125.161 38.1164 125.745 39.172C126.33 40.2276 127.124 41.0578 128.13 41.6656C129.134 42.2725 130.256 42.5758 131.499 42.5758C132.742 42.5758 133.864 42.2725 134.869 41.6656C135.874 41.0581 136.661 40.2284 137.233 39.1736C137.805 38.1176 138.092 36.9303 138.092 35.6087C138.092 34.2868 137.805 33.0928 137.233 32.0237C136.661 30.9565 135.874 30.1207 134.869 29.5134C133.864 28.9066 132.742 28.6033 131.499 28.6033Z" fill="#DCEEFE"></path></svg>