<svg xmlns="http://www.w3.org/2000/svg" width="218" height="52" viewBox="0 0 218 52" fill="none"><path d="M192.44 26.0849C191.339 25.3509 190.105 24.8171 188.938 24.1833C188.171 23.7496 187.37 23.3826 186.737 22.8488C185.636 21.948 185.87 20.1465 187.004 19.3458C188.671 18.2449 191.439 18.8454 191.739 21.114C191.739 21.1473 191.773 21.1807 191.839 21.1807H194.374C194.441 21.1807 194.474 21.1473 194.474 21.0806C194.34 19.5126 193.74 18.2115 192.64 17.3775C191.572 16.5768 190.372 16.1431 189.071 16.1431C182.401 16.1431 181.801 23.1824 185.403 25.4177C185.803 25.6846 189.338 27.4527 190.572 28.2201C191.806 28.9874 192.206 30.3886 191.673 31.5229C191.172 32.5237 189.905 33.2243 188.638 33.1576C187.237 33.0909 186.17 32.3236 185.803 31.1559C185.736 30.9557 185.703 30.522 185.703 30.3552C185.703 30.3219 185.67 30.2551 185.603 30.2551H182.868C182.835 30.2551 182.768 30.2885 182.768 30.3552C182.768 32.3236 183.268 33.4245 184.602 34.4254C185.87 35.3595 187.237 35.7598 188.671 35.7598C192.406 35.7598 194.34 33.658 194.707 31.4562C194.974 29.2876 194.34 27.3526 192.44 26.0849Z" fill="#DCEEFE"></path><path d="M75.449 16.51H71.3136C71.2802 16.51 71.2469 16.5434 71.2135 16.5768L68.9791 23.9831C68.9458 24.0832 68.8124 24.0832 68.779 23.9831L66.5446 16.5768C66.5446 16.5434 66.5112 16.51 66.4445 16.51H62.2758C62.2425 16.51 62.1758 16.5434 62.1758 16.6101V35.4929C62.1758 35.5263 62.2091 35.593 62.2758 35.593H65.0105C65.0439 35.593 65.1106 35.5597 65.1106 35.4929V21.1473C65.1106 21.0473 65.2773 21.0139 65.3106 21.114L67.5784 28.5537L67.7452 29.0875C67.7452 29.1208 67.7785 29.1542 67.8452 29.1542H69.9463C69.9796 29.1542 70.013 29.1208 70.0463 29.0875L70.2131 28.5537L72.4808 21.114C72.5142 21.0139 72.6809 21.0473 72.6809 21.1473V35.4929C72.6809 35.5263 72.7143 35.593 72.781 35.593H75.5156C75.549 35.593 75.6157 35.5597 75.6157 35.4929V16.6101C75.549 16.5434 75.5157 16.51 75.449 16.51Z" fill="#DCEEFE"></path><path d="M150.619 16.51C150.586 16.51 150.552 16.5434 150.519 16.5768L148.285 23.9831C148.251 24.0832 148.118 24.0832 148.085 23.9831L145.85 16.5768C145.85 16.5434 145.817 16.51 145.75 16.51H141.581C141.548 16.51 141.481 16.5434 141.481 16.6101V35.4929C141.481 35.5263 141.515 35.593 141.581 35.593H144.316C144.349 35.593 144.416 35.5597 144.416 35.4929V21.1473C144.416 21.0473 144.583 21.0139 144.616 21.114L146.884 28.5537L147.051 29.0875C147.051 29.1208 147.084 29.1542 147.151 29.1542H149.252C149.285 29.1542 149.318 29.1208 149.352 29.0875L149.519 28.5537L151.786 21.114C151.82 21.0139 151.986 21.0473 151.986 21.1473V35.4929C151.986 35.5263 152.02 35.593 152.086 35.593H154.821C154.854 35.593 154.921 35.5597 154.921 35.4929V16.6101C154.921 16.5768 154.888 16.51 154.821 16.51H150.619Z" fill="#DCEEFE"></path><path d="M115.402 16.51H102.496C102.462 16.51 102.395 16.5434 102.395 16.6101V18.9788C102.395 19.0122 102.429 19.0789 102.496 19.0789H107.498V35.4929C107.498 35.5263 107.531 35.593 107.598 35.593H110.333C110.366 35.593 110.433 35.5597 110.433 35.4929V19.0789H115.435C115.469 19.0789 115.535 19.0455 115.535 18.9788V16.6101C115.502 16.5434 115.469 16.51 115.402 16.51Z" fill="#DCEEFE"></path><path d="M124.973 27.2192L126.974 19.8462C127.008 19.7461 127.141 19.7461 127.174 19.8462L129.175 27.2192C129.175 27.2859 129.142 27.3526 129.075 27.3526H125.073C125.007 27.3526 124.94 27.2859 124.973 27.2192ZM131.51 35.5597H134.011C134.078 35.5597 134.111 35.4929 134.111 35.4262L128.975 16.4767C128.975 16.4433 128.942 16.41 128.875 16.41H125.307C125.273 16.41 125.24 16.4433 125.207 16.4767L120.071 35.4262C120.071 35.4929 120.104 35.5597 120.171 35.5597H122.672C122.705 35.5597 122.739 35.5263 122.772 35.4929L124.273 29.9882C124.273 29.9549 124.306 29.9215 124.373 29.9215H129.876C129.909 29.9215 129.942 29.9549 129.976 29.9882L131.476 35.4929C131.41 35.5263 131.476 35.5597 131.51 35.5597Z" fill="#DCEEFE"></path><path d="M167.361 27.2192L169.362 19.8462C169.395 19.7461 169.528 19.7461 169.562 19.8462L171.563 27.2192C171.563 27.2859 171.529 27.3526 171.463 27.3526H167.461C167.394 27.3526 167.327 27.2859 167.361 27.2192ZM173.897 35.5597H176.398C176.465 35.5597 176.498 35.4929 176.498 35.4262L171.363 16.4767C171.363 16.4433 171.329 16.41 171.263 16.41H167.694C167.661 16.41 167.627 16.4433 167.594 16.4767L162.425 35.4596C162.425 35.5263 162.458 35.593 162.525 35.593H165.026C165.06 35.593 165.093 35.5597 165.126 35.5263L166.627 30.0216C166.627 29.9882 166.66 29.9549 166.727 29.9549H172.23C172.263 29.9549 172.296 29.9882 172.33 30.0216L173.83 35.5263C173.797 35.5263 173.83 35.5597 173.897 35.5597Z" fill="#DCEEFE"></path><path d="M86.5235 32.557V26.6853C86.5235 26.6519 86.5568 26.5852 86.6235 26.5852H93.8938C93.9271 26.5852 93.9938 26.5518 93.9938 26.4851V24.1164C93.9938 24.0831 93.9605 24.0163 93.8938 24.0163H86.6235C86.5902 24.0163 86.5235 23.983 86.5235 23.9163V18.912C86.5235 18.8786 86.5568 18.8119 86.6235 18.8119H94.8942C94.9276 18.8119 94.9943 18.7785 94.9943 18.7118V16.3431C94.9943 16.3098 94.9609 16.243 94.8942 16.243H83.6888C83.6554 16.243 83.5887 16.2764 83.5887 16.3431V35.1926C83.5887 35.2259 83.6221 35.2926 83.6888 35.2926H95.2277C95.2611 35.2926 95.3278 35.2593 95.3278 35.1926V32.6904C95.3278 32.6571 95.2944 32.5903 95.2277 32.5903H86.5902C86.5568 32.6571 86.5235 32.6237 86.5235 32.557Z" fill="#DCEEFE"></path><path d="M217.385 35.4262L207.947 25.6512C207.914 25.6178 207.914 25.5511 207.947 25.5177L216.451 16.6769C216.518 16.6101 216.451 16.51 216.385 16.51H212.916C212.883 16.51 212.883 16.51 212.85 16.5434L205.646 24.0498C205.579 24.1165 205.479 24.0498 205.479 23.9831V16.6101C205.479 16.5768 205.446 16.51 205.379 16.51H202.645C202.611 16.51 202.545 16.5434 202.545 16.6101V35.4929C202.545 35.5263 202.578 35.593 202.645 35.593H205.379C205.413 35.593 205.479 35.5597 205.479 35.4929V27.1858C205.479 27.1191 205.579 27.0524 205.646 27.1191L213.817 35.5597C213.817 35.5597 213.85 35.593 213.883 35.593H217.352C217.385 35.593 217.452 35.4596 217.385 35.4262Z" fill="#DCEEFE"></path><g clip-path="url(#clip0_5984_188416)"><g clip-path="url(#clip1_5984_188416)"><path d="M44.4126 5.32605L26.8301 18.3359L30.0997 10.6688L44.4126 5.32605Z" fill="url(#paint0_linear_5984_188416)"></path><path d="M44.4126 5.32605L26.8301 18.3359L30.0997 10.6688L44.4126 5.32605Z" fill="url(#paint1_linear_5984_188416)"></path><path d="M3.85156 5.32605L21.2775 18.4573L18.1645 10.6687L3.85156 5.32605Z" fill="url(#paint2_linear_5984_188416)"></path><path d="M3.85156 5.32605L21.2775 18.4573L18.1645 10.6687L3.85156 5.32605Z" fill="url(#paint3_linear_5984_188416)"></path><path d="M38.0786 35.4912L33.4004 42.638L43.4177 45.3961L46.2873 35.6474L38.0786 35.4912Z" fill="url(#paint4_linear_5984_188416)"></path><path d="M38.0786 35.4912L33.4004 42.638L43.4177 45.3961L46.2873 35.6474L38.0786 35.4912Z" fill="url(#paint5_linear_5984_188416)"></path><path d="M1.99219 35.6474L4.84432 45.3961L14.8443 42.638L10.1834 35.4912L1.99219 35.6474Z" fill="url(#paint6_linear_5984_188416)"></path><path d="M1.99219 35.6474L4.84432 45.3961L14.8443 42.638L10.1834 35.4912L1.99219 35.6474Z" fill="url(#paint7_linear_5984_188416)"></path><path d="M14.304 23.4183L11.5215 27.6162L21.4344 28.0672L21.104 17.3992L14.304 23.4183Z" fill="url(#paint8_linear_5984_188416)"></path><path d="M14.304 23.4183L11.5215 27.6162L21.4344 28.0672L21.104 17.3992L14.304 23.4183Z" fill="url(#paint9_linear_5984_188416)"></path><path d="M33.9545 23.4184L27.0503 17.2778L26.8242 28.0673L36.7371 27.6163L33.9545 23.4184Z" fill="url(#paint10_linear_5984_188416)"></path><path d="M14.8437 42.6381L20.8436 39.7413L15.6786 35.7169L14.8437 42.6381Z" fill="#E27625"></path><path d="M27.418 39.7413L33.4004 42.6381L32.583 35.7169L27.418 39.7413Z" fill="#E27625"></path><path d="M33.4004 42.6379L27.418 39.7411L27.9049 43.6266L27.8526 45.2746L33.4004 42.6379Z" fill="url(#paint11_linear_5984_188416)"></path><path d="M14.8437 42.6379L20.409 45.2746L20.3742 43.6266L20.8436 39.7411L14.8437 42.6379Z" fill="url(#paint12_radial_5984_188416)"></path><path d="M20.5169 33.1491L15.543 31.6921L19.056 30.0789L20.5169 33.1491Z" fill="url(#paint13_linear_5984_188416)"></path><path d="M27.748 33.1491L29.209 30.0789L32.7394 31.6921L27.748 33.1491Z" fill="url(#paint14_linear_5984_188416)"></path><path d="M14.8444 42.6379L15.714 35.4912L10.1836 35.6474L14.8444 42.6379Z" fill="#CC6228"></path><path d="M32.5469 35.4912L33.3991 42.6379L38.0773 35.6474L32.5469 35.4912Z" fill="#CC6228"></path><path d="M36.7371 27.6158L26.8242 28.0668L27.7459 33.1495L29.2068 30.079L32.7372 31.6923L36.7371 27.6158Z" fill="#CC6228"></path><path d="M15.5388 31.6923L19.0518 30.079L20.5127 33.1495L21.4344 28.0668L11.5215 27.6158L15.5388 31.6923Z" fill="#CC6228"></path><path d="M11.5215 27.6158L15.678 35.7167L15.5388 31.6923L11.5215 27.6158Z" fill="#E27525"></path><path d="M32.7385 31.6923L32.582 35.7167L36.7385 27.6158L32.7385 31.6923Z" fill="#E27525"></path><path d="M21.4355 28.0671L20.5137 33.1498L21.6789 39.1515L21.9398 31.2416L21.4355 28.0671Z" fill="#E27525"></path><path d="M26.8249 28.0671L26.3379 31.2243L26.5814 39.1515L27.7466 33.1498L26.8249 28.0671Z" fill="#E27525"></path><path d="M27.7492 33.1493L26.584 39.1511L27.4188 39.7409L32.584 35.7165L32.7405 31.6921L27.7492 33.1493Z" fill="url(#paint15_linear_5984_188416)"></path><path d="M15.543 31.6921L15.6822 35.7165L20.8473 39.7409L21.6821 39.1511L20.5169 33.1493L15.543 31.6921Z" fill="url(#paint16_linear_5984_188416)"></path><path d="M27.8523 45.2749L27.9044 43.6269L27.4523 43.2453L20.809 43.2453L20.3742 43.6269L20.409 45.2749L14.8438 42.6382L16.7915 44.234L20.7393 46.9575L27.5044 46.9575L31.4696 44.234L33.4 42.6382L27.8523 45.2749Z" fill="#C0AC9D"></path><path d="M27.4164 39.7415L26.5816 39.1519L21.6773 39.1519L20.8427 39.7415L20.373 43.6272L20.8079 43.2456L27.4512 43.2456L27.9035 43.6272L27.4164 39.7415Z" fill="url(#paint17_linear_5984_188416)"></path><path d="M45.1568 19.1858L46.6352 12.0044L44.409 5.32605L27.418 17.9023L33.9569 23.4183L43.1916 26.1071L45.2265 23.7306L44.3396 23.0887L45.7481 21.8052L44.67 20.9725L46.0787 19.897L45.1568 19.1858Z" fill="url(#paint18_linear_5984_188416)"></path><path d="M1.62695 12.005L3.12259 19.1864L2.16608 19.8976L3.59215 20.9732L2.5139 21.8058L3.92258 23.0894L3.03563 23.7313L5.0704 26.1077L14.3052 23.4189L20.8441 17.9029L3.85302 5.32666L1.62695 12.005Z" fill="url(#paint19_linear_5984_188416)"></path><path d="M43.1906 26.1073L33.9559 23.4187L36.7385 27.6166L32.582 35.7173L38.0776 35.6479L46.2862 35.6479L43.1906 26.1073Z" fill="url(#paint20_radial_5984_188416)"></path><path d="M43.1906 26.1073L33.9559 23.4187L36.7385 27.6166L32.582 35.7173L38.0776 35.6479L46.2862 35.6479L43.1906 26.1073Z" fill="url(#paint21_linear_5984_188416)"></path><path d="M14.3051 23.4187L5.07042 26.1073L1.99219 35.6479L10.1834 35.6479L15.679 35.7173L11.5225 27.6166L14.3051 23.4187Z" fill="url(#paint22_radial_5984_188416)"></path><path d="M14.3051 23.4187L5.07042 26.1073L1.99219 35.6479L10.1834 35.6479L15.679 35.7173L11.5225 27.6166L14.3051 23.4187Z" fill="url(#paint23_linear_5984_188416)"></path><path d="M26.8268 28.0677L27.4181 17.9026L30.0963 10.6692L18.166 10.6692L20.8442 17.9026L21.4355 28.0677L21.6616 31.2594L21.679 39.152L26.5833 39.152L26.6007 31.2594L26.8268 28.0677Z" fill="url(#paint24_linear_5984_188416)"></path><path d="M26.8268 28.0677L27.4181 17.9026L30.0963 10.6692L18.166 10.6692L20.8442 17.9026L21.4355 28.0677L21.6616 31.2594L21.679 39.152L26.5833 39.152L26.6007 31.2594L26.8268 28.0677Z" fill="url(#paint25_linear_5984_188416)" fill-opacity="0.6"></path></g></g><defs><linearGradient id="paint0_linear_5984_188416" x1="29.0283" y1="17.4241" x2="51.6231" y2="-5.52658" gradientUnits="userSpaceOnUse"><stop stop-color="#E17726"></stop><stop offset="1" stop-color="#E17726" stop-opacity="0"></stop></linearGradient><linearGradient id="paint1_linear_5984_188416" x1="35.778" y1="17.5162" x2="29.8298" y2="-1.63883" gradientUnits="userSpaceOnUse"><stop stop-color="#E27625"></stop><stop offset="1" stop-color="#FCA15C" stop-opacity="0.83"></stop></linearGradient><linearGradient id="paint2_linear_5984_188416" x1="22.9764" y1="18.4915" x2="0.737409" y2="-4.81493" gradientUnits="userSpaceOnUse"><stop stop-color="#E27625"></stop><stop offset="1" stop-color="#E27625" stop-opacity="0"></stop></linearGradient><linearGradient id="paint3_linear_5984_188416" x1="12.7198" y1="17.63" x2="6.62551" y2="-1.64089" gradientUnits="userSpaceOnUse"><stop stop-color="#E27625"></stop><stop offset="1" stop-color="#FCA15C" stop-opacity="0.83"></stop></linearGradient><linearGradient id="paint4_linear_5984_188416" x1="31.1605" y1="35.5713" x2="43.7962" y2="53.5851" gradientUnits="userSpaceOnUse"><stop offset="0.256463" stop-color="#E27625"></stop><stop offset="1" stop-color="#E27625" stop-opacity="0"></stop></linearGradient><linearGradient id="paint5_linear_5984_188416" x1="39.9587" y1="44.772" x2="35.2871" y2="30.2892" gradientUnits="userSpaceOnUse"><stop stop-color="#E27625"></stop><stop offset="1" stop-color="#FCA15C" stop-opacity="0.83"></stop></linearGradient><linearGradient id="paint6_linear_5984_188416" x1="15.8589" y1="35.5713" x2="-0.509006" y2="50.5159" gradientUnits="userSpaceOnUse"><stop offset="0.247205" stop-color="#E27625"></stop><stop offset="1" stop-color="#E27625" stop-opacity="0"></stop></linearGradient><linearGradient id="paint7_linear_5984_188416" x1="8.53276" y1="44.772" x2="3.85088" y2="30.2966" gradientUnits="userSpaceOnUse"><stop stop-color="#E27625"></stop><stop offset="1" stop-color="#FCA15C" stop-opacity="0.83"></stop></linearGradient><linearGradient id="paint8_linear_5984_188416" x1="13.3673" y1="26.3196" x2="32.4039" y2="10.6634" gradientUnits="userSpaceOnUse"><stop stop-color="#E27625"></stop><stop offset="1" stop-color="#E27625" stop-opacity="0"></stop></linearGradient><linearGradient id="paint9_linear_5984_188416" x1="16.5663" y1="27.3951" x2="10.106" y2="13.0911" gradientUnits="userSpaceOnUse"><stop stop-color="#E27625"></stop><stop offset="1" stop-color="#FCA15C" stop-opacity="0.83"></stop></linearGradient><linearGradient id="paint10_linear_5984_188416" x1="31.869" y1="27.3875" x2="25.2863" y2="12.9767" gradientUnits="userSpaceOnUse"><stop stop-color="#E27625"></stop><stop offset="1" stop-color="#FCA15C" stop-opacity="0.83"></stop></linearGradient><linearGradient id="paint11_linear_5984_188416" x1="30.4092" y1="39.7411" x2="36.8507" y2="54.1511" gradientUnits="userSpaceOnUse"><stop stop-color="#D5BFB2"></stop><stop offset="1" stop-color="#D5BFB2" stop-opacity="0"></stop></linearGradient><radialGradient id="paint12_radial_5984_188416" cx="0" cy="0" r="1" gradientUnits="userSpaceOnUse" gradientTransform="translate(20.7795 38.5394) rotate(116.98) scale(28.3386 30.7272)"><stop stop-color="#D5BFB2"></stop><stop offset="1" stop-color="#D5BFB2" stop-opacity="0"></stop></radialGradient><linearGradient id="paint13_linear_5984_188416" x1="18.0299" y1="30.0789" x2="18.0299" y2="33.1491" gradientUnits="userSpaceOnUse"><stop stop-color="#041836"></stop><stop offset="1" stop-color="#17396B"></stop></linearGradient><linearGradient id="paint14_linear_5984_188416" x1="30.2437" y1="30.0789" x2="30.2437" y2="33.1491" gradientUnits="userSpaceOnUse"><stop stop-color="#041836"></stop><stop offset="1" stop-color="#17396B"></stop></linearGradient><linearGradient id="paint15_linear_5984_188416" x1="32.0499" y1="31.6572" x2="16.2157" y2="49.8042" gradientUnits="userSpaceOnUse"><stop offset="0.200338" stop-color="#F5841F"></stop><stop offset="1" stop-color="#F5841F" stop-opacity="0"></stop></linearGradient><linearGradient id="paint16_linear_5984_188416" x1="15.5068" y1="31.6572" x2="28.1386" y2="48.203" gradientUnits="userSpaceOnUse"><stop offset="0.32798" stop-color="#F5841F"></stop><stop offset="1" stop-color="#F5841F" stop-opacity="0"></stop></linearGradient><linearGradient id="paint17_linear_5984_188416" x1="24.1383" y1="39.1519" x2="24.1383" y2="43.6272" gradientUnits="userSpaceOnUse"><stop stop-color="#041836"></stop><stop offset="1" stop-color="#17396B"></stop></linearGradient><linearGradient id="paint18_linear_5984_188416" x1="32.9621" y1="21.6684" x2="46.5703" y2="12.2585" gradientUnits="userSpaceOnUse"><stop stop-color="#592B0D"></stop><stop offset="1" stop-color="#763E1A"></stop></linearGradient><linearGradient id="paint19_linear_5984_188416" x1="19.4985" y1="18.7731" x2="2.56059" y2="9.65267" gradientUnits="userSpaceOnUse"><stop stop-color="#592B0D"></stop><stop offset="1" stop-color="#763E1A"></stop></linearGradient><radialGradient id="paint20_radial_5984_188416" cx="0" cy="0" r="1" gradientUnits="userSpaceOnUse" gradientTransform="translate(35.7614 28.8199) rotate(11.6894) scale(19.8221 22.0876)"><stop offset="0.263819" stop-color="#F5841F"></stop><stop offset="1" stop-color="#F5841F" stop-opacity="0"></stop></radialGradient><linearGradient id="paint21_linear_5984_188416" x1="39.5562" y1="34.9424" x2="33.0076" y2="17.5549" gradientUnits="userSpaceOnUse"><stop stop-color="#E27625"></stop><stop offset="1" stop-color="#FCA15C" stop-opacity="0.83"></stop></linearGradient><radialGradient id="paint22_radial_5984_188416" cx="0" cy="0" r="1" gradientUnits="userSpaceOnUse" gradientTransform="translate(17.1043 35.5714) rotate(-159.818) scale(35.0667 39.0249)"><stop offset="0.299865" stop-color="#F5841F"></stop><stop offset="0.567167" stop-color="#F5841F" stop-opacity="0"></stop></radialGradient><linearGradient id="paint23_linear_5984_188416" x1="8.95754" y1="34.9424" x2="2.4026" y2="17.5604" gradientUnits="userSpaceOnUse"><stop stop-color="#E27625"></stop><stop offset="1" stop-color="#FCA15C" stop-opacity="0.83"></stop></linearGradient><linearGradient id="paint24_linear_5984_188416" x1="24.042" y1="10.6636" x2="24.042" y2="67.9513" gradientUnits="userSpaceOnUse"><stop offset="0.267932" stop-color="#F5841F"></stop><stop offset="1" stop-color="#FFC796" stop-opacity="0.89"></stop></linearGradient><linearGradient id="paint25_linear_5984_188416" x1="24.1116" y1="39.152" x2="24.1116" y2="10.6529" gradientUnits="userSpaceOnUse"><stop stop-color="#FFCF52" stop-opacity="0"></stop><stop offset="1" stop-color="#CB690B"></stop></linearGradient><clipPath id="clip0_5984_188416"><rect width="50.1783" height="50.1783" fill="white" transform="translate(0.046875 1.09509)"></rect></clipPath><clipPath id="clip1_5984_188416"><rect width="54.009" height="54.009" fill="white" transform="translate(-2.875 -0.862427)"></rect></clipPath></defs></svg>