<svg xmlns="http://www.w3.org/2000/svg" width="192" height="29" viewBox="0 0 192 29" fill="none"><g clip-path="url(#clip0_5984_188422)"><path d="M23.8205 1.1842V28.78H18.7358L6.62208 11.4113H6.42267V28.78H0.53125V1.1842H5.69758L17.7161 18.5394H17.9608V1.1842H23.8205Z" fill="#DCEEFE"></path><path d="M27.1426 28.78V1.1842H45.5737V5.9946H33.0295V12.5702H44.3591V17.3805H33.0295V28.78H27.1426Z" fill="#DCEEFE"></path><path d="M48.4688 5.9946V1.1842H71.3365V5.9946H62.8121V28.78H56.9932V5.9946H48.4688Z" fill="#DCEEFE"></path><path d="M72.832 28.78V8.08313H78.447V11.6763H78.6645C78.9599 10.5197 79.6341 9.49291 80.5815 8.75686C81.4768 8.09812 82.5664 7.75076 83.6813 7.76873C83.9948 7.77005 84.3079 7.78804 84.6194 7.82263C84.917 7.85215 85.2123 7.90167 85.5031 7.97085V13.0822C85.1317 12.9803 84.7529 12.9068 84.3702 12.8621C83.9331 12.8022 83.4926 12.7707 83.0514 12.7678C82.2618 12.7553 81.4819 12.9423 80.7855 13.3112C80.1295 13.6647 79.584 14.1898 79.2084 14.8294C78.8136 15.512 78.6146 16.2885 78.6328 17.0751V28.78H72.832Z" fill="#DCEEFE"></path><path d="M93.6708 29.1707C92.4471 29.1922 91.2327 28.9549 90.1088 28.4746C89.1003 28.0407 88.2418 27.3241 87.6389 26.413C87.004 25.3885 86.6886 24.2009 86.7326 22.9994C86.699 21.9961 86.9186 21.0003 87.3715 20.1024C87.7817 19.3381 88.3804 18.6892 89.1118 18.216C89.8823 17.7238 90.7289 17.3597 91.6179 17.138C92.5891 16.8899 93.5786 16.7186 94.5772 16.626C95.7857 16.5002 96.7646 16.3805 97.5139 16.2667C98.081 16.2118 98.6305 16.0405 99.1272 15.7636C99.2911 15.6549 99.4236 15.5058 99.5118 15.331C99.6 15.1562 99.6408 14.9617 99.6302 14.7665V14.6857C99.6526 14.3169 99.5918 13.9478 99.4523 13.6051C99.3127 13.2625 99.098 12.955 98.8236 12.7049C98.1731 12.2012 97.3587 11.9519 96.535 12.0042C95.6534 11.9575 94.7804 12.1955 94.047 12.6825C93.4574 13.0992 93.0265 13.7003 92.8234 14.3892L87.4667 13.9401C87.7133 12.733 88.2653 11.6079 89.071 10.6703C89.9097 9.72035 90.971 8.98926 92.1617 8.54129C93.5677 8.01882 95.0609 7.76581 96.5622 7.79571C97.6867 7.79145 98.8073 7.92726 99.8976 8.19994C100.912 8.44716 101.875 8.87149 102.739 9.45307C103.56 10.0103 104.234 10.7561 104.701 11.627C105.205 12.6095 105.452 13.701 105.422 14.8024V28.78H99.9339V25.9099H99.7798C99.4399 26.5578 98.9785 27.1356 98.4202 27.6122C97.8254 28.1193 97.1376 28.5081 96.3945 28.7575C95.5164 29.0457 94.5957 29.1853 93.6708 29.1707ZM95.3295 25.2092C96.1152 25.2253 96.893 25.051 97.5954 24.7017C98.2172 24.3947 98.7458 23.9297 99.1272 23.3543C99.499 22.7686 99.6896 22.0878 99.6756 21.396V19.1861C99.445 19.3239 99.1964 19.4297 98.9369 19.5006C98.6242 19.5949 98.2707 19.6802 97.8809 19.7566C97.4912 19.8329 97.106 19.9003 96.7163 19.9587L95.6558 20.1159C95.0487 20.1976 94.4547 20.3561 93.8884 20.5875C93.4248 20.7696 93.0171 21.0684 92.7055 21.4544C92.4175 21.8444 92.2692 22.3187 92.2841 22.8018C92.2622 23.149 92.3298 23.4961 92.4804 23.8104C92.631 24.1246 92.8597 24.3958 93.1451 24.5984C93.7903 25.0247 94.5547 25.2385 95.3295 25.2092Z" fill="#DCEEFE"></path><path d="M116.095 29.1123C114.572 29.1309 113.077 28.7078 111.794 27.8951C110.451 27.0127 109.394 25.7651 108.749 24.3019C107.949 22.4603 107.565 20.4673 107.625 18.463C107.556 16.4273 107.951 14.4024 108.78 12.5387C109.441 11.0877 110.512 9.85696 111.862 8.99492C113.131 8.2102 114.599 7.80041 116.095 7.81366C117.105 7.77972 118.109 7.97964 119.027 8.39755C119.756 8.74638 120.405 9.24199 120.93 9.8528C121.374 10.3702 121.746 10.9443 122.036 11.5596H122.213V1.1842H127.991V28.78H122.281V25.4652H122.036C121.736 26.0829 121.35 26.6558 120.89 27.1675C120.351 27.7681 119.692 28.2501 118.954 28.5823C118.052 28.9658 117.076 29.1468 116.095 29.1123ZM117.908 24.54C118.764 24.5645 119.603 24.2948 120.282 23.7764C120.969 23.2152 121.487 22.4769 121.778 21.643C122.146 20.6094 122.322 19.5184 122.299 18.4226C122.322 17.3315 122.147 16.2453 121.782 15.2156C121.495 14.3884 120.977 13.6593 120.287 13.1136C119.599 12.6117 118.761 12.3538 117.908 12.3815C117.04 12.3543 116.19 12.6257 115.501 13.1496C114.816 13.7078 114.303 14.4454 114.019 15.2785C113.667 16.2893 113.497 17.3535 113.516 18.4226C113.497 19.5056 113.67 20.5835 114.028 21.607C114.312 22.4474 114.825 23.1935 115.51 23.763C116.193 24.2921 117.041 24.5671 117.908 24.54Z" fill="#DCEEFE"></path><path d="M141.473 29.1842C139.543 29.2361 137.632 28.7871 135.931 27.8816C134.399 27.0283 133.158 25.7433 132.364 24.1896C131.492 22.4293 131.063 20.4861 131.113 18.5258C131.071 16.585 131.5 14.6624 132.364 12.9204C133.153 11.3594 134.377 10.0549 135.89 9.16106C137.516 8.23495 139.367 7.76887 141.242 7.81361C142.555 7.80195 143.859 8.02249 145.094 8.46488C146.267 8.88905 147.333 9.55849 148.221 10.4277C149.152 11.3556 149.865 12.475 150.31 13.7065C150.837 15.1887 151.09 16.7527 151.058 18.3237V19.9002H133.42V16.343H145.602C145.617 15.5764 145.429 14.8192 145.058 14.1466C144.705 13.5182 144.184 12.9978 143.553 12.642C142.875 12.2688 142.108 12.0812 141.333 12.0985C140.514 12.0817 139.707 12.2884 138.999 12.6959C138.338 13.0821 137.792 13.6354 137.417 14.2993C137.031 14.9858 136.83 15.7592 136.833 16.5451V19.9137C136.804 20.8303 136.997 21.7403 137.394 22.5682C137.758 23.2905 138.329 23.8904 139.035 24.2929C139.804 24.7126 140.672 24.9219 141.55 24.8993C142.15 24.906 142.747 24.8149 143.318 24.6298C143.825 24.4618 144.289 24.1859 144.677 23.8213C145.064 23.4521 145.362 23.0006 145.547 22.5008L150.904 22.8511C150.651 24.0872 150.076 25.2361 149.236 26.1838C148.35 27.1646 147.241 27.9221 146 28.3937C144.556 28.9404 143.019 29.2087 141.473 29.1842Z" fill="#DCEEFE"></path><path d="M191.5 28.6047L180.479 9.68656C180.457 9.64627 180.424 9.61266 180.384 9.58924C180.344 9.56582 180.299 9.55347 180.252 9.55347C180.206 9.55347 180.16 9.56582 180.12 9.58924C180.081 9.61266 180.048 9.64627 180.026 9.68656L169.013 28.6047C168.986 28.651 168.974 28.7047 168.98 28.758C168.986 28.8113 169.008 28.8614 169.045 28.901C169.081 28.9406 169.129 28.9676 169.182 28.9782C169.235 28.9887 169.29 28.9822 169.339 28.9596L180.152 24.257C180.185 24.2415 180.221 24.2334 180.257 24.2334C180.293 24.2334 180.328 24.2415 180.361 24.257L191.174 28.9596C191.223 28.9822 191.278 28.9887 191.331 28.9782C191.384 28.9676 191.432 28.9406 191.469 28.901C191.505 28.8614 191.528 28.8113 191.533 28.758C191.539 28.7047 191.528 28.651 191.5 28.6047Z" fill="#1571FA"></path><path d="M179.867 1.73214L168.845 20.6503C168.823 20.6906 168.79 20.7242 168.75 20.7477C168.711 20.7711 168.665 20.7834 168.619 20.7834C168.572 20.7834 168.527 20.7711 168.487 20.7477C168.447 20.7242 168.414 20.6906 168.392 20.6503L157.384 1.73214C157.356 1.68621 157.344 1.63259 157.349 1.57913C157.354 1.52567 157.376 1.47518 157.412 1.43503C157.448 1.39488 157.496 1.36719 157.549 1.35599C157.601 1.3448 157.657 1.3507 157.706 1.37282L168.524 6.07991C168.555 6.09537 168.59 6.10341 168.626 6.10341C168.661 6.10341 168.696 6.09537 168.728 6.07991L179.541 1.37282C179.59 1.35229 179.645 1.3475 179.697 1.35912C179.749 1.37074 179.797 1.39819 179.832 1.43767C179.868 1.47715 179.891 1.5267 179.897 1.57946C179.903 1.63222 179.893 1.68558 179.867 1.73214Z" fill="#93C5FE"></path></g><defs><clipPath id="clip0_5984_188422"><rect width="191" height="28" fill="white" transform="translate(0.53125 0.888306)"></rect></clipPath></defs></svg>