<svg xmlns="http://www.w3.org/2000/svg" width="199" height="43" viewBox="0 0 199 43" fill="none"><path d="M35.6745 13.0704C34.8153 12.5413 33.6982 12.5413 32.7531 13.0704L26.0509 17.1273L21.4969 19.773L14.7948 23.83C13.9356 24.3591 12.8185 24.3591 11.8733 23.83L6.54599 20.6551C5.68674 20.1259 5.08526 19.1558 5.08526 18.0974V11.8357C5.08526 10.7774 5.60081 9.8073 6.54599 9.27814L11.7874 6.19137C12.6466 5.66221 13.7636 5.66221 14.7089 6.19137L19.9503 9.27814C20.8095 9.8073 21.4109 10.7774 21.4109 11.8357V15.8926L25.965 13.1586V9.10175C25.965 8.04343 25.4495 7.07331 24.5043 6.54415L14.7948 0.723407C13.9356 0.194248 12.8185 0.194248 11.8733 0.723407L1.99198 6.54415C1.0468 7.07331 0.53125 8.04343 0.53125 9.10175V20.8314C0.53125 21.8897 1.0468 22.8599 1.99198 23.389L11.8733 29.2097C12.7326 29.739 13.8496 29.739 14.7948 29.2097L21.4969 25.241L26.0509 22.5071L32.7531 18.5384C33.6123 18.0093 34.7293 18.0093 35.6745 18.5384L40.9159 21.6252C41.7752 22.1543 42.3767 23.1245 42.3767 24.1827V30.4445C42.3767 31.5027 41.8611 32.4729 40.9159 33.002L35.6745 36.1771C34.8153 36.7062 33.6982 36.7062 32.7531 36.1771L27.5117 33.0903C26.6523 32.5611 26.0509 31.591 26.0509 30.5326V26.4758L21.4969 29.2097V33.2667C21.4969 34.3249 22.0124 35.2951 22.9577 35.8242L32.839 41.645C33.6982 42.1742 34.8153 42.1742 35.7604 41.645L45.6418 35.8242C46.501 35.2951 47.1025 34.3249 47.1025 33.2667V21.537C47.1025 20.4787 46.5869 19.5085 45.6418 18.9794L35.6745 13.0704Z" fill="#7950DD"></path><path d="M65.2442 38.2908V28.5529C66.292 29.8826 68.1936 30.6257 70.4058 30.6257C76.0331 30.6257 79.8365 26.5975 79.8365 20.4575C79.8365 14.3176 76.3436 10.2894 70.8715 10.2894C68.3488 10.2894 66.4084 11.228 65.2442 12.7532V10.6023H59.8496V38.2908H65.2442ZM69.7461 25.9327C66.8354 25.9327 64.9337 23.7426 64.9337 20.4575C64.9337 17.1333 66.8354 14.9433 69.7461 14.9433C72.579 14.9433 74.5196 17.1333 74.5196 20.4575C74.5196 23.7426 72.579 25.9327 69.7461 25.9327Z" fill="#DCEEFE"></path><path d="M92.0869 30.6257C98.1024 30.6257 102.41 26.3238 102.41 20.4575C102.41 14.5913 98.1024 10.2894 92.0869 10.2894C86.0716 10.2894 81.7637 14.5913 81.7637 20.4575C81.7637 26.3238 86.0716 30.6257 92.0869 30.6257ZM92.0869 25.9327C89.1762 25.9327 87.197 23.7035 87.197 20.4575C87.197 17.1725 89.1762 14.9433 92.0869 14.9433C94.9977 14.9433 96.977 17.1725 96.977 20.4575C96.977 23.7035 94.9977 25.9327 92.0869 25.9327Z" fill="#DCEEFE"></path><path d="M111.066 30.3126V2.03748H105.672V30.3126H111.066Z" fill="#DCEEFE"></path><path d="M127.282 10.6023L123.207 23.3124L119.093 10.6023H113.582L120.684 30.1564L117.812 38.2908H122.974L125.729 30.2346L132.832 10.6023H127.282Z" fill="#DCEEFE"></path><path d="M147.981 12.5577C146.894 11.1889 144.954 10.2894 142.587 10.2894C136.881 10.2894 133.428 14.3176 133.428 20.4575C133.428 26.5975 136.881 30.6257 142.664 30.6257C144.954 30.6257 147.01 29.7653 148.02 28.3183V30.8994C148.02 32.7375 146.817 34.0281 145.186 34.0281H136.182V38.2908H146.04C150.465 38.2908 153.415 35.5924 153.415 31.486V10.6023H147.981V12.5577ZM143.518 25.9327C140.646 25.9327 138.744 23.7817 138.744 20.4575C138.744 17.1333 140.646 14.9433 143.518 14.9433C146.429 14.9433 148.331 17.1333 148.331 20.4575C148.331 23.7817 146.429 25.9327 143.518 25.9327Z" fill="#DCEEFE"></path><path d="M167.015 30.6257C173.031 30.6257 177.338 26.3238 177.338 20.4575C177.338 14.5913 173.031 10.2894 167.015 10.2894C161 10.2894 156.691 14.5913 156.691 20.4575C156.691 26.3238 161 30.6257 167.015 30.6257ZM167.015 25.9327C164.104 25.9327 162.125 23.7035 162.125 20.4575C162.125 17.1725 164.104 14.9433 167.015 14.9433C169.926 14.9433 171.904 17.1725 171.904 20.4575C171.904 23.7035 169.926 25.9327 167.015 25.9327Z" fill="#DCEEFE"></path><path d="M185.722 30.3128V19.5189C185.722 16.9769 187.391 15.1388 189.758 15.1388C192.008 15.1388 193.522 16.8596 193.522 19.2452V30.3128H198.955V18.0328C198.955 13.4963 196.084 10.2894 191.659 10.2894C188.981 10.2894 186.808 11.4236 185.722 13.3399V10.6023H180.289V30.3128H185.722Z" fill="#DCEEFE"></path></svg>